<svg width="52" height="78" viewBox="0 0 52 78" fill="none" xmlns="http://www.w3.org/2000/svg">
<path d="M50.1489 38.7227C50.1489 42.064 47.579 44.7731 44.4094 44.7731C41.2397 44.7731 38.6699 42.064 38.6699 38.7227C38.6699 35.3813 41.2397 32.6722 44.4094 32.6722C47.579 32.6722 50.1489 35.3813 50.1489 38.7227Z" fill="#89CEEA"/>
<path d="M44.4093 32.6722C43.6482 32.6722 42.9218 32.83 42.257 33.1136C44.36 34.0117 45.8442 36.1837 45.8442 38.7227C45.8442 41.2616 44.36 43.4336 42.257 44.3317C42.9218 44.6153 43.6482 44.7731 44.4093 44.7731C47.5789 44.7731 50.1488 42.064 50.1488 38.7227C50.1488 35.3813 47.5789 32.6722 44.4093 32.6722Z" fill="#78C0DE"/>
<path d="M35.5131 60.0581V76.3109H1.07617V60.0581C1.07617 54.452 4.69923 49.7423 9.60526 48.4051C10.0312 48.2881 10.4673 48.1977 10.9107 48.1339C11.4157 48.0613 11.9296 48.0234 12.4532 48.0234H24.1362C24.6597 48.0234 25.1736 48.0613 25.6787 48.1339C26.1259 48.1977 26.5637 48.2899 26.993 48.4081C31.8946 49.7464 35.5131 54.4556 35.5131 60.0581Z" fill="#E8E1D5"/>
<path d="M26.993 48.4081C26.5637 48.2899 26.1259 48.1977 25.6787 48.1339C25.1736 48.0613 24.6597 48.0234 24.1362 48.0234H19.8315C20.355 48.0234 20.869 48.0613 21.374 48.1339C21.8213 48.1977 22.2591 48.2899 22.6884 48.4081C27.59 49.7464 31.2085 54.4556 31.2085 60.0581V76.3109H35.5131V60.0581C35.5131 54.4556 31.8946 49.7464 26.993 48.4081Z" fill="#D6CFC4"/>
<path d="M26.993 48.4081L18.2992 76.3109L9.60529 48.4051C10.0313 48.2881 10.4673 48.1977 10.9107 48.1339C11.4157 48.0613 11.9297 48.0234 12.4532 48.0234H24.1362C24.6597 48.0234 25.1737 48.0613 25.6787 48.1339C26.126 48.1977 26.5637 48.2899 26.993 48.4081Z" fill="#FF573D"/>
<path d="M24.7874 48.0229C25.3053 48.0229 25.6842 48.5375 25.5564 49.0669C24.9191 51.7069 21.9098 53.707 18.2946 53.707C14.6794 53.707 11.6701 51.7069 11.0328 49.0669C10.905 48.5375 11.2839 48.0229 11.8018 48.0229H14.0298V39.1871H22.5594V48.0229H24.7874Z" fill="#EBA28C"/>
<path d="M18.2947 76.311C18.3384 75.9187 14.6279 51.1864 14.0046 47.035C13.9553 46.7088 13.6666 46.4849 13.3561 46.5322L7.39692 47.4338C7.129 47.4746 6.92442 47.7068 6.90592 47.9916L6.37457 56.2016L8.87944 57.8082L8.18106 61.6476L18.2947 76.311Z" fill="#C4BEB4"/>
<path d="M18.2952 76.311C18.2515 75.9187 21.9614 51.1864 22.5852 47.035C22.634 46.7088 22.9232 46.4849 23.2337 46.5322L29.1929 47.4338C29.4609 47.4746 29.6654 47.7068 29.6839 47.9916L30.2153 56.2016L27.7104 57.8082L28.4082 61.6476L18.2952 76.311Z" fill="#C4BEB4"/>
<path d="M7.82009 24.353C7.82009 26.6083 6.26527 28.437 4.3478 28.437C2.43034 28.437 1.21967 26.3418 1.21967 24.0865C1.21967 21.4246 2.43034 20.2689 4.3478 20.2689C6.26527 20.2689 7.82009 22.0976 7.82009 24.353Z" fill="#EBA28C"/>
<path d="M28.7692 24.353C28.7692 26.6083 30.324 28.437 32.2415 28.437C34.159 28.437 35.3696 26.3418 35.3696 24.0865C35.3696 21.4246 34.159 20.2689 32.2415 20.2689C30.324 20.2689 28.7692 22.0976 28.7692 24.353Z" fill="#EBA28C"/>
<path d="M5.66772 29.6081V19.7596C5.66772 12.8282 10.9981 7.20911 17.5733 7.20911H19.016C25.5912 7.20911 30.9215 12.8282 30.9215 19.7596V29.6081C30.9215 36.9531 25.2734 42.9066 18.3064 42.9066H18.2828C11.3159 42.9066 5.66772 36.9531 5.66772 29.6081Z" fill="#FCC19C"/>
<path d="M19.016 7.20911H17.5733C17.0885 7.20911 16.6115 7.24338 16.1423 7.30246C22.0421 8.04813 26.6169 13.3393 26.6169 19.7596V29.6081C26.6169 36.1838 22.0898 41.6433 16.1423 42.7151C16.8379 42.841 17.5531 42.9066 18.2829 42.9066H18.3064C25.2734 42.9066 30.9215 36.9531 30.9215 29.6081V19.7596C30.9215 12.8282 25.5912 7.20911 19.016 7.20911Z" fill="#EBA28C"/>
<path d="M5.66773 24.2389C5.66773 24.3352 5.75068 24.4067 5.84036 24.3872C6.41431 24.2596 8.23313 23.7367 8.39399 22.2099C8.58512 20.3948 11.8472 15.2519 17.0083 14.7479C20.7664 14.3804 22.5925 12.3023 23.3077 11.1998C23.4506 10.9794 23.7724 11.0432 23.8256 11.3038C24.1103 12.7035 24.8855 15.6242 26.6208 17.2691C28.9144 19.4435 28.2244 24.2271 30.764 24.4156C30.8486 24.4215 30.9215 24.3535 30.9215 24.2643V20.4852C30.9215 20.0846 31.2298 19.7596 31.6098 19.7596H31.6726C31.9915 19.7596 32.2689 19.5303 32.3424 19.203C32.654 17.8168 33.3193 14.111 32.3194 11.2181C31.065 7.58785 27.5512 6.07524 27.5512 6.07524C27.5512 6.07524 26.3591 1.13446 19.0507 1.13446C11.7418 1.13446 8.87546 4.37888 8.87546 4.37888C8.87546 4.37888 3.32429 9.39588 3.80239 13.786C4.12356 16.7367 4.24631 18.6612 4.29171 19.606C4.31077 19.9918 4.61287 20.2943 4.97944 20.2943C5.35946 20.2943 5.66773 20.6193 5.66773 21.0199V24.2389Z" fill="#633327"/>
<path d="M32.3194 11.2187C31.065 7.58844 27.5513 6.07524 27.5513 6.07524C27.5513 6.07524 26.3591 1.13446 19.0508 1.13446C18.1932 1.13446 17.3995 1.18055 16.6619 1.25913C22.2691 2.02666 23.2467 6.07524 23.2467 6.07524C23.2467 6.07524 26.7604 7.58844 28.0148 11.2187C29.0147 14.111 28.3489 17.8168 28.0372 19.2036C28.0182 19.2893 27.984 19.3684 27.9391 19.4382C28.7754 21.6758 28.9043 24.2779 30.764 24.4156C30.8487 24.4215 30.9215 24.3535 30.9215 24.2643V20.4852C30.9215 20.0846 31.2298 19.7596 31.6098 19.7596H31.6726C31.991 19.7596 32.2684 19.5303 32.3418 19.203C32.654 17.8168 33.3194 14.111 32.3194 11.2187Z" fill="#572D22"/>
<path d="M12.7036 14.7479C8.87433 15.1219 6.09258 18.049 4.83258 20.2766C4.87966 20.2872 4.92899 20.2943 4.97943 20.2943C5.35945 20.2943 5.66772 20.6193 5.66772 21.0199V24.2389C5.66772 24.3352 5.75068 24.4067 5.84036 24.3872C6.4143 24.2596 8.23312 23.7367 8.39398 22.2105C8.58511 20.3954 11.8472 15.2525 17.0083 14.7479C18.3075 14.6209 19.3758 14.2894 20.2468 13.8646C17.8883 14.2185 16.4618 14.381 12.7036 14.7479Z" fill="#572D22"/>
<path d="M16.2107 26.1987C16.2107 28.2869 14.6049 29.9803 12.6235 29.9803C10.6421 29.9803 9.03632 28.2869 9.03632 26.1987C9.03632 24.1101 10.6421 22.4172 12.6235 22.4172C14.6049 22.4172 16.2107 24.1101 16.2107 26.1987Z" fill="#CEE8F2"/>
<path d="M27.5529 26.1987C27.5529 28.2869 25.9471 29.9803 23.9657 29.9803C21.9844 29.9803 20.3785 28.2869 20.3785 26.1987C20.3785 24.1101 21.9844 22.4172 23.9657 22.4172C25.9471 22.4172 27.5529 24.1101 27.5529 26.1987Z" fill="#CEE8F2"/>
<path d="M51.225 38.7227C51.225 34.761 48.1675 31.5378 44.4094 31.5378C40.6512 31.5378 37.5937 34.761 37.5937 38.7227C37.5937 42.2986 40.0846 45.2718 43.3332 45.8172V47.2707C43.3332 51.8351 40.2196 55.6455 36.114 56.4704C35.2878 53.3985 33.4197 50.7012 30.8246 48.9505L30.7573 47.9141C30.7046 47.1011 30.1111 46.4269 29.346 46.3105L27.4537 46.0246C31.1833 43.9684 33.7358 39.8518 33.7358 35.1161V29.24C35.3512 28.4872 36.4458 26.5196 36.4458 24.0865C36.4458 21.4418 35.3629 19.7454 33.4314 19.2709C33.7874 17.6136 34.3815 13.8699 33.3306 10.8299C32.1983 7.55475 29.4956 5.82885 28.4127 5.24921C27.8405 3.79865 25.7067 0 19.0508 0C11.7929 0 8.58458 3.08193 8.13843 3.55108C7.59194 4.05331 2.21172 9.13176 2.73355 13.9154C3.01324 16.4833 3.13991 18.2629 3.19596 19.2615C1.24038 19.7224 0.143487 21.424 0.143487 24.0865C0.143487 26.5368 1.25327 28.5138 2.886 29.2553V35.1161C2.886 39.8489 5.43571 43.963 9.16133 46.0204L7.24387 46.3105C6.47823 46.4269 5.88467 47.1011 5.83198 47.9141L5.76528 48.9505C2.19547 51.3583 0 55.5575 0 60.0581V67.7647C0 68.391 0.482028 68.8992 1.07616 68.8992C1.67028 68.8992 2.15231 68.391 2.15231 67.7647V60.0581C2.15231 56.9401 3.42464 53.997 5.57079 51.9515L5.30063 56.1241C5.27316 56.5472 5.47158 56.9508 5.8146 57.1706L7.68162 58.3676L7.12393 61.4342C7.06788 61.7421 7.1357 62.0611 7.31057 62.3146L16.1816 75.1765H2.15231V72.5861C2.15231 71.9598 1.67028 71.4517 1.07616 71.4517C0.482028 71.4517 0 71.9598 0 72.5861V76.3109C0 76.9372 0.482028 77.4454 1.07616 77.4454H35.5131C36.1073 77.4454 36.5893 76.9372 36.5893 76.3109V60.0581C36.5893 59.6008 36.5663 59.147 36.5215 58.6979C41.6198 57.6716 45.4855 52.9394 45.4855 47.2707V45.8172C48.7342 45.2718 51.225 42.2986 51.225 38.7227ZM33.9129 56.6382H31.2063C31.2696 56.4781 31.301 56.3038 31.2892 56.1241L31.0191 51.9521C32.3542 53.2248 33.3502 54.8443 33.9129 56.6382ZM29.0971 55.5906L27.5204 56.6022C25.6428 56.4349 23.9293 55.6509 22.5651 54.442C22.6234 54.0502 23.2954 49.562 23.5706 47.7286L28.6381 48.4961L29.0971 55.5906ZM18.2834 44.041H18.3059C19.3994 44.041 20.4632 43.9045 21.4828 43.6481V45.1513H15.1065V43.6481C16.1261 43.9045 17.1899 44.041 18.2834 44.041ZM15.1519 47.4202H17.2387C17.2611 49.2719 17.696 51.0203 18.4505 52.5683C18.3983 52.5695 18.3468 52.5719 18.2946 52.5719C17.4612 52.5719 16.635 52.4484 15.8711 52.2156C15.6457 50.713 15.4064 49.1171 15.1519 47.4202ZM20.721 52.1991C19.9005 50.8058 19.4173 49.1709 19.391 47.4202H21.4379C21.184 49.1106 20.9452 50.7012 20.721 52.1991ZM18.2946 54.8408C18.8103 54.8408 19.3164 54.8042 19.8119 54.7327C19.9571 54.9152 20.1079 55.0913 20.2626 55.2639C19.373 61.2186 18.7419 65.4834 18.2952 68.5429C17.8328 65.3776 17.1731 60.9214 16.2337 54.6387C16.9007 54.7717 17.589 54.8408 18.2946 54.8408ZM23.6351 45.0124V42.903C27.5445 41.1547 30.5292 37.5445 31.5835 33.1337V35.1161C31.5835 40.0852 28.1392 44.2201 23.6351 45.0124ZM34.2935 24.0865C34.2935 25.6676 33.5262 27.3025 32.2415 27.3025C32.1597 27.3025 32.0784 27.2966 31.9977 27.2866V21.4193C32.0784 21.4093 32.1597 21.4034 32.2415 21.4034C33.256 21.4034 34.2935 21.7224 34.2935 24.0865ZM9.5761 5.24035C9.60637 5.21317 9.63552 5.18363 9.66298 5.15231C9.6882 5.12336 12.2889 2.26891 19.0508 2.26891C25.3586 2.26891 26.4667 6.19932 26.5082 6.3553C26.5861 6.71159 26.8209 6.98398 27.141 7.12461C27.1718 7.13761 30.2388 8.51254 31.3083 11.6069C32.1546 14.0554 31.6311 17.3223 31.3593 18.644C30.5045 18.7728 29.8454 19.5492 29.8454 20.4852V21.9464C29.7383 21.6297 29.6279 21.2545 29.5046 20.8184C29.0809 19.3194 28.6 17.6195 27.34 16.4254C25.8059 14.9707 25.1069 12.193 24.8777 11.0657C24.7633 10.5043 24.3441 10.0695 23.8099 9.95838C23.2741 9.8473 22.7282 10.083 22.4193 10.5593C21.7675 11.5643 20.1852 13.2979 16.9091 13.6182C16.8631 13.6229 16.8172 13.6276 16.7718 13.6329C16.1804 13.6997 15.7528 14.2587 15.8161 14.8814C15.8795 15.5048 16.4108 15.9544 17.0005 15.8889C17.0363 15.8847 17.0716 15.8812 17.1075 15.8776C20.0966 15.5852 22.0074 14.313 23.1659 13.1254C23.6463 14.7597 24.4853 16.7698 25.9012 18.1123C26.7105 18.8798 27.0821 20.1951 27.442 21.4672C27.864 22.9585 28.3752 24.7612 29.8454 25.355V29.6075C29.8454 36.3155 24.6692 41.7721 18.3059 41.7721H18.2834C11.9201 41.7721 6.74391 36.3155 6.74391 29.6075V25.306C7.33075 25.1057 7.83688 24.8304 8.24997 24.4936C8.06276 25.0253 7.96019 25.5997 7.96019 26.1988C7.96019 28.9091 10.052 31.1148 12.6235 31.1148C14.8246 31.1148 16.6726 29.4982 17.1602 27.3332H19.4291C19.9162 29.4982 21.7647 31.1148 23.9658 31.1148C26.5368 31.1148 28.6291 28.9091 28.6291 26.1988C28.6291 23.4879 26.5368 21.2828 23.9658 21.2828C21.7647 21.2828 19.9162 22.8988 19.4291 25.0643H17.1602C16.6726 22.8988 14.8246 21.2828 12.6235 21.2828C11.382 21.2828 10.2532 21.7981 9.41636 22.6347C9.43654 22.5366 9.45279 22.4368 9.46344 22.3351C9.55536 21.4648 10.9224 18.998 13.2081 17.3849C13.7019 17.0363 13.8342 16.3314 13.5041 15.8109C13.1734 15.2903 12.5047 15.1509 12.0109 15.4995C9.34686 17.379 7.50394 20.3812 7.32458 22.0846C7.29207 22.3895 7.05218 22.6394 6.74391 22.8327V21.0193C6.74391 21.0175 6.74391 21.0163 6.74391 21.0152C6.74223 20.4828 6.52756 20.0036 6.18509 19.665C6.17332 19.6526 6.16099 19.6402 6.14866 19.6278C6.13913 19.619 6.12904 19.6107 6.11951 19.6024C6.10382 19.5882 6.08757 19.5741 6.07075 19.5611C5.86281 19.3873 5.61731 19.2609 5.34883 19.2006C5.29278 18.1855 5.1633 16.335 4.87129 13.6566C4.53387 10.5563 8.153 6.52961 9.5761 5.24035ZM10.1125 26.1988C10.1125 24.7394 11.2391 23.5517 12.6235 23.5517C14.008 23.5517 15.1346 24.7394 15.1346 26.1988C15.1346 27.6582 14.008 28.8459 12.6235 28.8459C11.2391 28.8459 10.1125 27.6582 10.1125 26.1988ZM21.4547 26.1988C21.4547 24.7394 22.5813 23.5517 23.9658 23.5517C25.3502 23.5517 26.4768 24.7394 26.4768 26.1988C26.4768 27.6582 25.3502 28.8459 23.9658 28.8459C22.5813 28.8459 21.4547 27.6582 21.4547 26.1988ZM4.34778 21.4034C4.42961 21.4034 4.51089 21.4105 4.5916 21.4205V27.2866C4.51089 27.2966 4.42961 27.3025 4.34778 27.3025C3.06312 27.3025 2.2958 25.6676 2.2958 24.0865C2.2958 21.7224 3.33328 21.4034 4.34778 21.4034ZM5.03831 35.1161V33.2696C6.1212 37.6184 9.08511 41.173 12.9542 42.903V45.0059C8.46632 44.1994 5.03831 40.0734 5.03831 35.1161ZM9.43822 56.8385L7.49217 55.5906L7.87387 49.7021C7.87443 49.695 7.87499 49.6885 7.87499 49.6814L7.95178 48.4955L13.0192 47.7286C13.295 49.5668 15.9865 67.6229 16.6109 71.9409L9.32556 61.3781L9.93594 58.0214C10.0206 57.5564 9.82216 57.0849 9.43822 56.8385ZM34.437 75.1765H20.4083L25.1254 68.3367C25.4752 67.8303 25.3687 67.1207 24.8878 66.752C24.4074 66.3839 23.7343 66.4961 23.3845 67.0025L19.9789 71.9403C20.4968 68.3579 21.2967 62.9474 22.1873 56.972C23.5437 57.921 25.1097 58.5609 26.7952 58.7996L27.2637 61.3781L26.0957 63.0715C25.7465 63.5785 25.853 64.2881 26.3333 64.6562C26.8142 65.0249 27.4874 64.9126 27.8366 64.4062L29.2787 62.3152C29.4542 62.0611 29.5214 61.7426 29.4654 61.4342L29.0063 58.9071H34.3781C34.4162 59.287 34.4364 59.6711 34.4364 60.0581V75.1765H34.437ZM44.4094 43.6387C41.8378 43.6387 39.746 41.4336 39.746 38.7227C39.746 36.0118 41.8378 33.8067 44.4094 33.8067C46.9809 33.8067 49.0727 36.0118 49.0727 38.7227C49.0727 41.4336 46.9809 43.6387 44.4094 43.6387Z" fill="black"/>
</svg>
